<svg xmlns="http://www.w3.org/2000/svg" viewBox="0 0 4312.98 4596.44">
  <defs>
    <style>
      .cls-1 {
        fill: #595959;
      }

      .cls-2 {
        fill: #f6a312;
      }

      .cls-3 {
        fill: #2d2929;
      }

      .cls-4 {
        fill: #fdc288;
      }

      .cls-5 {
        fill: #4a4342;
      }

      .cls-6 {
        fill: #3f3a3a;
      }

      .cls-7 {
        fill: #9e4d4c;
      }

      .cls-8 {
        opacity: 0.2;
      }

      .cls-15, .cls-9 {
        fill: #fff;
      }

      .cls-10 {
        fill: #f5d0b8;
      }

      .cls-11 {
        fill: #c73b2a;
      }

      .cls-12 {
        fill: #666261;
      }

      .cls-13 {
        fill: #3e2c38;
      }

      .cls-14 {
        fill: #333;
      }

      .cls-15 {
        opacity: 0.5;
      }

      .cls-16 {
        fill: #3d3736;
      }

      .cls-17 {
        fill: #fffdfd;
      }

      .cls-18 {
        fill: #e28e16;
      }

      .cls-19 {
        fill: #605757;
      }
    </style>
  </defs>
  <title>418</title>
  <g id="Layer_2" data-name="Layer 2">
    <rect class="cls-1" x="3041.7" y="925.85" width="34.81" height="3264.81"/>
    <rect class="cls-1" x="3341.29" y="925.85" width="34.81" height="3264.81"/>
    <rect class="cls-1" x="3066.56" y="1243.25" width="283.84" height="28.18"/>
    <rect class="cls-1" x="3066.56" y="1563.97" width="283.84" height="28.18"/>
    <rect class="cls-1" x="3066.56" y="1884.69" width="283.84" height="28.18"/>
    <rect class="cls-1" x="3066.56" y="2205.42" width="283.84" height="28.18"/>
    <rect class="cls-1" x="3066.56" y="2526.14" width="283.84" height="28.18"/>
    <rect class="cls-1" x="3066.56" y="2846.86" width="283.84" height="28.18"/>
    <rect class="cls-1" x="3066.56" y="3167.58" width="283.84" height="28.18"/>
    <rect class="cls-1" x="3066.56" y="3488.3" width="283.84" height="28.18"/>
    <rect class="cls-1" x="3066.56" y="3809.02" width="283.84" height="28.18"/>
    <rect class="cls-1" x="3066.56" y="4129.74" width="283.84" height="28.18"/>
    <rect class="cls-1" x="3664.07" y="1055.46" width="23.2" height="413.68" transform="translate(1322.34 -2307.09) rotate(42.04)"/>
    <rect class="cls-1" x="3664.07" y="1055.46" width="23.2" height="413.68" transform="translate(6782.32 -431.99) rotate(137.96)"/>
    <rect class="cls-1" x="3664.07" y="1382.5" width="23.2" height="413.68" transform="translate(1541.34 -2222.95) rotate(42.04)"/>
    <rect class="cls-1" x="3664.07" y="1382.5" width="23.2" height="413.68" transform="translate(7001.3 137.94) rotate(137.96)"/>
    <rect class="cls-1" x="3664.07" y="1703.22" width="23.2" height="413.68" transform="translate(1756.08 -2140.43) rotate(42.04)"/>
    <rect class="cls-1" x="3664.07" y="1703.22" width="23.2" height="413.68" transform="translate(7216.06 696.88) rotate(137.96)"/>
    <rect class="cls-1" x="3664.07" y="2023.94" width="23.2" height="413.68" transform="translate(1970.84 -2057.91) rotate(42.04)"/>
    <rect class="cls-1" x="3664.07" y="2023.94" width="23.2" height="413.68" transform="translate(7430.81 1255.81) rotate(137.96)"/>
    <rect class="cls-1" x="3664.07" y="2344.66" width="23.2" height="413.68" transform="translate(2185.6 -1975.39) rotate(42.04)"/>
    <rect class="cls-1" x="3664.07" y="2344.66" width="23.2" height="413.68" transform="translate(7645.56 1814.74) rotate(137.96)"/>
    <rect class="cls-1" x="3664.07" y="2665.38" width="23.2" height="413.68" transform="translate(2400.43 -1892.89) rotate(42.04)"/>
    <rect class="cls-1" x="3664.07" y="2665.38" width="23.2" height="413.68" transform="translate(7860.31 2373.59) rotate(137.96)"/>
    <rect class="cls-1" x="3664.07" y="2986.1" width="23.2" height="413.68" transform="translate(2615.13 -1810.36) rotate(42.04)"/>
    <rect class="cls-1" x="3664.07" y="2986.1" width="23.2" height="413.68" transform="translate(8075.07 2932.58) rotate(137.96)"/>
    <rect class="cls-1" x="3664.07" y="3306.82" width="23.2" height="413.68" transform="translate(2829.88 -1727.85) rotate(42.04)"/>
    <rect class="cls-1" x="3664.07" y="3306.82" width="23.2" height="413.68" transform="translate(8289.83 3491.51) rotate(137.96)"/>
    <rect class="cls-1" x="3664.07" y="3627.55" width="23.2" height="413.68" transform="translate(3044.64 -1645.33) rotate(42.04)"/>
    <rect class="cls-1" x="3664.07" y="3627.55" width="23.2" height="413.68" transform="translate(8504.58 4050.44) rotate(137.96)"/>
    <rect class="cls-1" x="3664.07" y="3948.27" width="23.2" height="413.68" transform="translate(3259.47 -1562.81) rotate(42.04)"/>
    <rect class="cls-1" x="3664.07" y="3948.27" width="23.2" height="413.68" transform="translate(8719.35 4609.29) rotate(137.96)"/>
    <rect class="cls-1" x="3206.03" y="-667.81" width="28.41" height="3033.17" transform="translate(3600.42 -2542.06) rotate(90)"/>
    <rect class="cls-1" x="3017.84" y="-149.12" width="28.41" height="1333.07" transform="translate(1495.54 -2537.73) rotate(60)"/>
    <rect class="cls-1" x="1482.17" y="720.96" width="28.41" height="498.03" transform="matrix(0.5, 0.87, -0.87, 0.5, 1119.61, -981.51)"/>
    <rect class="cls-1" x="4058.04" y="-69.5" width="28.41" height="1171.54" transform="translate(6349.73 -2705.36) rotate(124.76)"/>
    <rect class="cls-1" x="3530.31" y="196.84" width="18.16" height="655.8" transform="translate(6506.8 1352.37) rotate(-172.23)"/>
    <rect class="cls-1" x="3652.92" y="196.84" width="18.16" height="655.8" transform="translate(-505.91 329.09) rotate(-7.77)"/>
    <rect class="cls-1" x="2956.86" y="-605.31" width="28.41" height="3397.25" transform="translate(3595.79 -2048.35) rotate(90)"/>
    <rect class="cls-1" x="4217.26" y="959.21" width="231.69" height="23" transform="translate(4835.22 -3533) rotate(90)"/>
    <rect class="cls-1" x="3955.46" y="959.21" width="231.69" height="23" transform="translate(4573.43 -3271.21) rotate(90)"/>
    <rect class="cls-1" x="3693.67" y="959.21" width="231.69" height="23" transform="translate(4311.63 -3009.41) rotate(90)"/>
    <rect class="cls-1" x="3431.87" y="959.21" width="231.69" height="23" transform="translate(4049.84 -2747.61) rotate(90)"/>
    <rect class="cls-1" x="3170.08" y="959.21" width="231.69" height="23" transform="translate(3788.04 -2485.82) rotate(90)"/>
    <rect class="cls-1" x="3507.17" y="751.19" width="187.31" height="23" transform="translate(6733.05 1354.78) rotate(180)"/>
    <rect class="cls-1" x="3518.15" y="635.05" width="165.35" height="23" transform="translate(6733.05 1122.49) rotate(180)"/>
    <rect class="cls-1" x="3541.35" y="518.9" width="118.94" height="23" transform="translate(6733.05 890.19) rotate(180)"/>
    <rect class="cls-1" x="3550.05" y="402.75" width="101.54" height="23" transform="translate(6733.05 657.89) rotate(180)"/>
    <rect class="cls-1" x="3567.46" y="286.6" width="66.73" height="23" transform="translate(6733.05 425.6) rotate(180)"/>
    <rect class="cls-1" x="2908.28" y="959.21" width="231.69" height="23" transform="translate(3526.24 -2224.02) rotate(90)"/>
    <rect class="cls-1" x="2646.48" y="959.21" width="231.69" height="23" transform="translate(3264.45 -1962.23) rotate(90)"/>
    <rect class="cls-1" x="2384.69" y="959.21" width="231.69" height="23" transform="translate(3002.65 -1700.43) rotate(90)"/>
    <rect class="cls-1" x="2122.89" y="959.21" width="231.69" height="23" transform="translate(2740.86 -1438.63) rotate(90)"/>
    <rect class="cls-1" x="1861.1" y="959.21" width="231.69" height="23" transform="translate(2479.06 -1176.84) rotate(90)"/>
    <rect class="cls-1" x="4458.85" y="800.72" width="18.94" height="337.67" transform="translate(7711.85 -1870.51) rotate(132.04)"/>
    <rect class="cls-1" x="4458.85" y="800.72" width="18.94" height="337.67" transform="translate(6271.65 4766.87) rotate(-132.04)"/>
    <rect class="cls-1" x="4191.9" y="800.72" width="18.94" height="337.67" transform="translate(7266.14 -1672.26) rotate(132.04)"/>
    <rect class="cls-1" x="4191.9" y="800.72" width="18.94" height="337.67" transform="translate(5825.93 4568.61) rotate(-132.04)"/>
    <rect class="cls-1" x="3930.1" y="800.72" width="18.94" height="337.67" transform="translate(6829.04 -1477.82) rotate(132.04)"/>
    <rect class="cls-1" x="3930.1" y="800.72" width="18.94" height="337.67" transform="translate(5388.83 4374.17) rotate(-132.04)"/>
    <rect class="cls-1" x="3668.31" y="800.72" width="18.94" height="337.67" transform="translate(6391.95 -1283.37) rotate(132.04)"/>
    <rect class="cls-1" x="3668.31" y="800.72" width="18.94" height="337.67" transform="translate(4951.74 4179.73) rotate(-132.04)"/>
    <rect class="cls-1" x="3406.51" y="800.72" width="18.94" height="337.67" transform="translate(5954.89 -1088.87) rotate(132.04)"/>
    <rect class="cls-1" x="3406.51" y="800.72" width="18.94" height="337.67" transform="translate(4514.7 3985.26) rotate(-132.04)"/>
    <rect class="cls-1" x="3144.71" y="800.72" width="18.94" height="337.67" transform="translate(5517.76 -894.49) rotate(132.04)"/>
    <rect class="cls-1" x="3144.71" y="800.72" width="18.94" height="337.67" transform="translate(4077.54 3790.85) rotate(-132.04)"/>
    <rect class="cls-1" x="2882.92" y="800.72" width="18.94" height="337.67" transform="translate(5080.66 -700.05) rotate(132.04)"/>
    <rect class="cls-1" x="2882.92" y="800.72" width="18.94" height="337.67" transform="translate(3640.45 3596.41) rotate(-132.04)"/>
    <rect class="cls-1" x="2621.12" y="800.72" width="18.94" height="337.67" transform="translate(4643.57 -505.61) rotate(132.04)"/>
    <rect class="cls-1" x="2621.12" y="800.72" width="18.94" height="337.67" transform="translate(3203.35 3401.97) rotate(-132.04)"/>
    <rect class="cls-1" x="2359.33" y="800.72" width="18.94" height="337.67" transform="translate(4206.47 -311.17) rotate(132.04)"/>
    <rect class="cls-1" x="2359.33" y="800.72" width="18.94" height="337.67" transform="translate(2766.26 3207.53) rotate(-132.04)"/>
    <rect class="cls-1" x="2097.53" y="800.72" width="18.94" height="337.67" transform="translate(3769.37 -116.73) rotate(132.04)"/>
    <rect class="cls-1" x="2097.53" y="800.72" width="18.94" height="337.67" transform="translate(2329.16 3013.09) rotate(-132.04)"/>
    <rect class="cls-1" x="1599.3" y="959.21" width="231.69" height="23" transform="translate(2217.26 -915.04) rotate(90)"/>
    <rect class="cls-1" x="1835.73" y="800.72" width="18.94" height="337.67" transform="translate(3332.28 77.71) rotate(132.04)"/>
    <rect class="cls-1" x="1835.73" y="800.72" width="18.94" height="337.67" transform="translate(1892.06 2818.65) rotate(-132.04)"/>
    <rect class="cls-1" x="2492.46" y="1083.03" width="16.16" height="1501.59" transform="translate(-339.72 -334.48) rotate(3.85)"/>
    <rect class="cls-1" x="2338.05" y="1083.03" width="16.16" height="1501.59" transform="translate(4341.59 3335.25) rotate(176.15)"/>
    <path class="cls-2" d="M2540.2,2946.1c-12.67,32.33-39.74,47.4-72,54.38-35.35,7.65-67.72.45-94.95-24.55-25.66-23.56-40.51-53.39-49-86.65a7.76,7.76,0,0,1-.22-1.63,7.94,7.94,0,0,1,11.09-7.45,5.89,5.89,0,0,1,1.61,1c9.94,9.15,19.31,18.93,28.63,28.73,13.54,14.24,27.37,27.16,48.63,29.16,29.53,2.77,51.68-16.34,52-45.93a31.77,31.77,0,0,0-12.84-26.66c-10.36-8.09-21.44-15.27-31.77-23.4-23.71-18.65-30.94-44.82-17.45-67.52a27.21,27.21,0,0,1,8.72-8.74c6.83-4.29,28.54-8.51,33.24,10.61.11.44.21.89.3,1.35,2.82,14.56,11.85,21.28,24.41,27.92,23.08,12.21,46.67,24.41,62.72,46.68,9.37,13,14.2,27,14.35,36.47C2548.79,2912.86,2546,2931.29,2540.2,2946.1Z" transform="translate(-468.59 -170.6)"/>
    <polygon class="cls-3" points="1952.49 2402.21 2026.21 2402.21 2026.21 2472.06 1989.51 2607.74 1952.49 2607.74 1915.48 2607.74 1878.79 2472.06 1878.79 2402.21 1952.49 2402.21"/>
    <rect class="cls-3" x="4056.9" y="685.93" width="175.28" height="433.02"/>
    <rect class="cls-3" x="4151.38" y="553.33" width="161.6" height="263.54"/>
    <rect class="cls-2" x="2820.22" y="4190.66" width="803.88" height="218.79"/>
    <rect class="cls-3" x="2375.19" y="4399.2" width="1693.94" height="197.24"/>
    <rect class="cls-3" x="1740.33" y="800.1" width="427.31" height="108.41"/>
  </g>
  <g id="Layer_3" data-name="Layer 3">
    <path class="cls-4" d="M1958.33,3244.22c-29.46-71.88-76.48-137.72-140.49-181.73a195.36,195.36,0,0,1,62.82-70.25c41.11-28,59.67,4.22,83.34,33.86a758.07,758.07,0,0,1,154,338.4,735.72,735.72,0,0,1,12,139.55c-.76,72.83-12.09,145-24.11,216.85,0,0,18.87,86.71,8.38,113.32,0,0-5.47,72.93-54.75,99,0,0-43.45,28.18-47.84.69,0,0-62.78,20.11-58.05-29.25,0,0-67.84,21.28-55.38-44.87,0,0-51.76,4.74-24.62-48.21,0,0,6.71-12.06,8.35-49.41,0,0,3.73-42.83,50.65-56.55,0,0,4.91-10.52,36.54-54.47a179.16,179.16,0,0,0,20.77-39.85c16.37-44.31,17.12-92.72,14.6-139.86C2000.38,3393.9,1987.73,3316.1,1958.33,3244.22Z" transform="translate(-468.59 -170.6)"/>
    <path class="cls-3" d="M1419.86,4589.65c-4.81,12.92-9.69,26.32-8.82,40.08,1.6,25.34,22.34,45.56,44.71,57.58,25.78,13.86,54.83,20.23,83.55,25.92,82.34,16.31,168.81,28.11,249.22,4,8.59-2.58,17.4-5.76,23.67-12.17,9.87-10.09,11.12-26.58,5.48-39.52s-17-22.62-29.51-29.24-26.13-10.59-39.47-15.18a424.17,424.17,0,0,1-179-119.79c-4.56-5.17-9.27-10.65-15.71-13.1-6.13-2.34-13-1.58-19.47-.8l-48.41,5.84c-10.2,1.23-28.18-.7-34,9.34-6.77,11.64-10.06,27.48-14.76,40.12Z" transform="translate(-468.59 -170.6)"/>
    <path class="cls-3" d="M1314.82,4589.65c4.81,12.92,9.69,26.32,8.82,40.08-1.6,25.34-22.34,45.56-44.71,57.58-25.78,13.86-54.83,20.23-83.55,25.92-82.34,16.31-168.81,28.11-249.22,4-8.59-2.58-17.4-5.76-23.67-12.17-9.87-10.09-11.12-26.58-5.48-39.52s17-22.62,29.51-29.24,26.13-10.59,39.47-15.18a424.17,424.17,0,0,0,179-119.79c4.56-5.17,9.27-10.65,15.71-13.1,6.13-2.34,13-1.58,19.47-.8l48.41,5.84c10.2,1.23,28.18-.7,34,9.34,6.77,11.64,10.06,27.48,14.76,40.12Z" transform="translate(-468.59 -170.6)"/>
    <path class="cls-5" d="M984.65,3816.92s105.18,487.4,156.05,644.14h176s-22.69-393.22-13.06-528c0,0,54.31,6.19,70.81,1V3817.6Z" transform="translate(-468.59 -170.6)"/>
    <rect class="cls-6" x="656.64" y="4275.33" width="203.83" height="75.96" rx="24.63" ry="24.63"/>
    <path class="cls-5" d="M1754.93,3816.92s-106.21,487.4-157.08,644.14h-176s23.72-393.22,14.09-528c0,0-53.28,6.19-69.78,1V3817.6Z" transform="translate(-468.59 -170.6)"/>
    <rect class="cls-6" x="1409.49" y="4445.93" width="203.83" height="75.96" rx="24.63" ry="24.63" transform="translate(2554.22 8797.22) rotate(180)"/>
    <path class="cls-7" d="M2073.31,3054.31l-148.68,180.34-98.25-43.12-71.45,625.37S1657.3,3880,1382.67,3874c-252,1.51-398-57.09-398-57.09l-58-625.37-98.26,43.12L804.84,3206l-80.58-97.74-44.51-54,353.89-264.5,9.69-7.23h.69l300.82-1v-.25l31.66.12,31.73-.12v.25l300.81,1h.63l5.1,3.83Z" transform="translate(-468.59 -170.6)"/>
    <polygon class="cls-8" points="918.01 3648.02 1083.86 3441.51 976.6 3042.03 1036.53 2912.34 918.01 2826.13 918.01 2824.34 916.78 2825.23 915.54 2824.34 915.54 2826.13 797.02 2912.34 856.95 3042.03 749.69 3441.51 915.54 3648.02 915.54 3651.09 916.78 3649.55 918.01 3651.09 918.01 3648.02"/>
    <path class="cls-8" d="M1778.91,2250.11v360.56a270.1,270.1,0,0,1-6.74,60.05A281,281,0,0,1,1709,2782.58h.63l5.1,3.84c-55,66.41-140.12,109.21-235.29,109.21,0,0-43.87,40.22-106.69,40.22s-106.69-40.22-106.69-40.22c-93.54,0-177.44-41.36-232.46-105.81l9.69-7.24h.69c-45.83-50-73.65-115.38-73.65-186.57V2235.39a272.31,272.31,0,0,1,6.49-59c34.37-121.3,151.26-211.25,289.23-211.25h213.39C1644.15,1965.16,1778.91,2093.38,1778.91,2250.11Z" transform="translate(-468.59 -170.6)"/>
    <path class="cls-4" d="M1782.69,2235.39V2596a269.47,269.47,0,0,1-10.51,74.72A281,281,0,0,1,1709,2782.58c-55,60.18-136,98.32-225.85,98.32,0,0-43.81,40.29-106.69,40.29s-106.69-40.29-106.69-40.29c-89.82,0-170.77-38.14-225.79-98.32-45.83-50-73.65-115.38-73.65-186.57V2235.39a272.31,272.31,0,0,1,6.49-59c28.77-128.66,149.5-225.91,293-225.91h213.39C1647.92,1950.49,1782.69,2078.71,1782.69,2235.39Z" transform="translate(-468.59 -170.6)"/>
    <path class="cls-9" d="M1550,2679.64c-14.66,39.65-51.95,87.1-144.25,110.83,0,0-135.42,41.22-198.87-102.63-2.6-5.6-5-11.51-7.17-17.66,0,0,157.72,76.38,358.25-55.49C1558,2614.68,1563.19,2644,1550,2679.64Z" transform="translate(-468.59 -170.6)"/>
    <path class="cls-10" d="M1362.56,2798.84c-46.14,0-117.52-16.76-158.53-109.74-2.49-5.35-4.87-11.21-7.26-17.86l-2.6-7.25,6.93,3.35c1.56.75,158.57,74,355.15-55.29l4-2.62.84,4.71c.22,1.23,5.21,30.58-8.1,66.59h0c-14,37.88-50.78,88.2-146.42,112.78C1406.11,2793.65,1388.24,2798.84,1362.56,2798.84Zm-157.33-123c1.49,3.79,3,7.31,4.53,10.63,61.58,139.61,189.7,102.6,195.1,100.95,93.13-23.94,128.73-72.44,142.22-108.91h0a139.91,139.91,0,0,0,8.37-58.46C1381,2732.57,1237.66,2688.37,1205.23,2675.87Z" transform="translate(-468.59 -170.6)"/>
    <path class="cls-11" d="M1550,2679.64c-14.66,39.65-51.95,87.1-144.25,110.83,0,0-135.42,41.22-198.87-102.63C1273.19,2724.41,1415.47,2779.51,1550,2679.64Z" transform="translate(-468.59 -170.6)"/>
    <path class="cls-5" d="M1795.35,2593.38l-10.3,11.54s-3.76-186.3-15.89-233c0,0-27.6-105.17-70.37-125.8,0,0,37.61-129.53-60.67-172.51,0,0-119.21,120.36-314,119.5,0,0-135.59,10.32-258.45-73.93,0,0-29.12,48.14-5.46,110.9,0,0-79.17,83.39-89.18,185.69,0,0-4.05,133.85,2.2,168.27,0,0-7.21-3.25-34.62-32.75-22.1-23.8-31.17-54.47-38.79-85.3-23.57-95.35-23.72-241.14-3.11-319,0,0,30.33-130.67,57-141,0,0-60.67-185.69-47.93-233.26,0,0,35.79,90.55,155.31,79.66,0,0-51-69.92-39.43-144.43,0,0,91,67.06,187.46,49.29,0,0,61.31-6.58,101-21.67a283.89,283.89,0,0,1,52-14.71c67.89-11.84,213-24.8,283.22,62.17,0,0,55.51,57.6,64.61,115.63,0,0,149.24,104.45,156.52,286.71,0,0,13.11,132.27-4.06,248.79a373.32,373.32,0,0,1-38,116.94h0A204.55,204.55,0,0,1,1795.35,2593.38Z" transform="translate(-468.59 -170.6)"/>
    <path class="cls-12" d="M937.72,1850.08s120.12,421.82,558.15,270.52C1495.87,2120.6,1063.91,2148.11,937.72,1850.08Z" transform="translate(-468.59 -170.6)"/>
    <path class="cls-12" d="M1056.91,1771.09s136.72,369.26,517.38,206.85C1574.29,1977.94,1190.41,2029.41,1056.91,1771.09Z" transform="translate(-468.59 -170.6)"/>
    <path class="cls-13" d="M1179.73,2404.68c-9.11,9.61-13.05,24.36-8.34,36.74,3.39,8.9,10.83,15.91,19.47,19.91s18.38,5.2,27.88,4.69c11.1-.59,22.31-3.57,31.24-10.18s15.27-17.21,15.1-28.33-6.94-21.69-16.21-28c-15.6-10.63-39.22-12.14-56.22-4.09A43.36,43.36,0,0,0,1179.73,2404.68Z" transform="translate(-468.59 -170.6)"/>
    <path class="cls-9" d="M1224.46,2398.82c-4.14-.22-8.63,1.36-10.75,4.91-2.29,3.84-1.26,8.8.55,12.89a38.83,38.83,0,0,0,15.31,17.35c4.63,2.8,10.5,4.58,15.41,2.32,4.28-2,6.84-6.79,6.92-11.51s-2-9.28-5-13C1241.52,2405.09,1233.33,2399.28,1224.46,2398.82Z" transform="translate(-468.59 -170.6)"/>
    <path class="cls-13" d="M1507.05,2404.68c-9.11,9.61-13.05,24.36-8.34,36.74,3.39,8.9,10.83,15.91,19.47,19.91s18.38,5.2,27.88,4.69c11.1-.59,22.31-3.57,31.24-10.18s15.27-17.21,15.1-28.33-6.94-21.69-16.21-28c-15.6-10.63-39.22-12.14-56.22-4.09A43.36,43.36,0,0,0,1507.05,2404.68Z" transform="translate(-468.59 -170.6)"/>
    <path class="cls-9" d="M1551.78,2398.82c-4.14-.22-8.63,1.36-10.75,4.91-2.29,3.84-1.26,8.8.55,12.89a38.83,38.83,0,0,0,15.3,17.35c4.63,2.8,10.5,4.58,15.41,2.32,4.29-2,6.84-6.79,6.92-11.51s-2-9.28-5-13C1568.84,2405.09,1560.65,2399.28,1551.78,2398.82Z" transform="translate(-468.59 -170.6)"/>
    <g>
      <path class="cls-14" d="M1780.56,2353.91c-2.08-9.06-6.55-14.73-16.93-16.05-14.92-1.89-28.39-8.5-41-16.68-29.71-19.26-61.75-32.6-97-37.64-31.72-4.53-62.82-1.2-94,5.6-33.61,7.24-60.3,25.81-85,48.15-5.35,4.85-10.51,9.95-15.74,14.92-9.13,8.62-16.05,9.32-26.63,2.46a46.25,46.25,0,0,0-58.41,0c-10.58,6.86-17.5,6.17-26.63-2.46-5.22-5-10.39-10.07-15.74-14.92-24.74-22.34-51.43-40.91-85-48.15-31.16-6.8-62.25-10.13-94-5.6-35.25,5-67.29,18.38-97,37.64-12.59,8.18-26.06,14.79-41,16.68-10.39,1.32-14.85,7-16.93,16.05-1,4.66-1.64,9.38-2.52,14.1v17.88c2.52,2.9,4.47,6.73,7.62,8.62,12.15,7.37,18.7,17.94,21.47,31.66a381.29,381.29,0,0,0,9.38,38.27c11,35.5,29.65,65.34,61.94,85.92,40.66,25.93,83.72,37.45,131.43,25.05,34.05-8.81,64.77-23.86,89.26-49.85,20.27-21.47,32.92-47.21,41.8-75,2.77-8.5,4.91-17.12,7.68-25.62,3.65-11.2,11.33-18.57,23.1-20,4.72-.5,9.57-.82,14.35-.94,4.78.13,9.63.44,14.35.94,11.77,1.39,19.45,8.75,23.1,20,2.77,8.5,4.91,17.12,7.68,25.62,8.88,27.82,21.53,53.57,41.8,75,24.49,26,55.2,41,89.26,49.85,47.71,12.4,90.77.88,131.43-25.05,32.29-20.58,50.92-50.42,61.94-85.92a381.29,381.29,0,0,0,9.38-38.27c2.77-13.72,9.31-24.3,21.46-31.66,3.15-1.89,5.1-5.73,7.62-8.62V2368C1782.2,2363.29,1781.57,2358.57,1780.56,2353.91Zm-536.68,178.2c-24.8,17.62-52.62,25.81-85.17,26.12-39.22-1-75-15.36-102.67-46.83-42.87-48.6-40.66-119.28,4.66-165.55,54.32-55.58,147.48-55.45,201.68.25C1315.77,2401,1307.21,2487.3,1243.89,2532.11Zm450.19-20.71c-27.7,31.47-63.45,45.82-102.66,46.83-32.54-.31-60.37-8.5-85.17-26.12-63.32-44.82-71.88-131.12-18.51-186,54.2-55.7,147.36-55.83,201.68-.25C1734.73,2392.12,1736.94,2462.81,1694.07,2511.4Z" transform="translate(-468.59 -170.6)"/>
      <path class="cls-15" d="M1243.89,2532.11c-24.8,17.62-52.62,25.81-85.17,26.12-39.22-1-75-15.36-102.67-46.83-42.87-48.6-40.66-119.28,4.66-165.55,54.32-55.58,147.48-55.45,201.68.25C1315.77,2401,1307.21,2487.3,1243.89,2532.11Z" transform="translate(-468.59 -170.6)"/>
      <path class="cls-15" d="M1694.07,2511.4c-27.7,31.47-63.45,45.82-102.66,46.83-32.54-.31-60.37-8.5-85.17-26.12-63.32-44.82-71.88-131.12-18.51-186,54.2-55.7,147.36-55.83,201.68-.25C1734.73,2392.12,1736.94,2462.81,1694.07,2511.4Z" transform="translate(-468.59 -170.6)"/>
    </g>
    <path class="cls-16" d="M1070.16,2245.88s13.76-36.58,79.65-42.2c0,0,132.36-9.85,155.78,33.72l-103.74-8.61a188.58,188.58,0,0,0-24.08-.48C1155.6,2229.31,1110.14,2232.91,1070.16,2245.88Z" transform="translate(-468.59 -170.6)"/>
    <path class="cls-16" d="M1685.37,2245.88s-13.76-36.58-79.65-42.2c0,0-132.36-9.85-155.78,33.72l103.74-8.61a188.58,188.58,0,0,1,24.08-.48C1599.93,2229.31,1645.4,2232.91,1685.37,2245.88Z" transform="translate(-468.59 -170.6)"/>
    <polygon class="cls-17" points="905.42 3635.43 1071.28 3428.92 964.01 3029.44 1023.94 2899.75 905.42 2813.54 905.42 2811.75 904.19 2812.64 902.96 2811.75 902.96 2813.54 784.43 2899.75 844.37 3029.44 737.1 3428.92 902.96 3635.43 902.96 3638.5 904.19 3636.97 905.42 3638.5 905.42 3635.43"/>
    <path class="cls-18" d="M1014.87,1552.5s48-44.45,104.68-40.58v335.61s-96.79,11-96.79,6.44S1014.87,1552.5,1014.87,1552.5Z" transform="translate(-468.59 -170.6)"/>
    <path class="cls-18" d="M1232.28,1450.43c5.8,0,29-18.18,95.34.5L1356,1823.75s-121.1,3.54-121.1,0C1234.85,1816.66,1232.28,1450.43,1232.28,1450.43Z" transform="translate(-468.59 -170.6)"/>
    <path class="cls-18" d="M1455.16,1431.4c1.93,0,38.65-2.58,111.44,46.38L1555,1805s-116.59,0-116.59-5.8S1455.16,1431.4,1455.16,1431.4Z" transform="translate(-468.59 -170.6)"/>
    <path class="cls-18" d="M1668.37,1501.61c2.58,2.58,33.5,1.93,94,96l-3.87,200.33s-99.2,32.07-99.2,27S1668.37,1501.61,1668.37,1501.61Z" transform="translate(-468.59 -170.6)"/>
    <path class="cls-2" d="M777.31,2156.72s45.87-473.51,231.87-609.59c6.79-5,14.56-7.32,15.25,1.07l20.4,230.39h33.5V1502.9s42.23-54.46,141.15-70.47a21.38,21.38,0,0,1,24.72,20.26l13.2,316.9,34.78-1.29V1447.51a18.3,18.3,0,0,1,3.55-10.81,53.14,53.14,0,0,1,35.1-21.4s60.32-12.52,122.13-2.26a24.19,24.19,0,0,1,19.92,20.23,95.34,95.34,0,0,1,1,14.23c0,38.65,6.44,313.06,6.44,313.06h30.92l17.2-294.83c.62-10.65,7.17-18.8,17.26-22.26,7.77-2.66,21.75-3.69,32.21-1.61,0,0,82,14.07,105.86,48.58a8.56,8.56,0,0,1,1.48,4.56l10.22,273.29H1716l14.52-212.3a2.8,2.8,0,0,1,3.2-2.59c12.52,1.85,62.25,16.55,112.4,132.44,0,0,100.49,153.36,96.62,353l7.73,117.83Z" transform="translate(-468.59 -170.6)"/>
    <path class="cls-18" d="M1614.31,2124.85,1508,2153.19H1230.3L1124,2124.85H779.49V2206s139.08-12.19,184.59,0c36.34,9.73,81.32,33.8,107.28,47.73,14.08,7.56,29.3,12.76,45.29,12.76h505c16,0,31.7-5.2,45.78-12.76,26-13.93,70.57-37.44,106.91-47.17,45.51-12.19,184.71-.56,184.71-.56v-81.2Z" transform="translate(-468.59 -170.6)"/>
    <g>
      <path class="cls-3" d="M903.25,4068.71,476,3671.37a23.12,23.12,0,0,1-1.19-32.68l527.26-567a23.12,23.12,0,0,1,32.68-1.19L1462,3467.84a23.12,23.12,0,0,1,1.19,32.68l-527.26,567A23.12,23.12,0,0,1,903.25,4068.71Z" transform="translate(-468.59 -170.6)"/>
      <rect class="cls-9" x="718.28" y="3223.56" width="516.18" height="688.25" transform="translate(2222.3 119.57) rotate(42.92)"/>
      <path class="cls-2" d="M1111.15,3279.51h176.36A24.45,24.45,0,0,1,1312,3304v47.14a0,0,0,0,1,0,0H1086.69a0,0,0,0,1,0,0V3304a24.45,24.45,0,0,1,24.45-24.45Z" transform="translate(2110.12 -99.82) rotate(42.92)"/>
      <path class="cls-2" d="M1225.54,3308.83l-26.84-25a20.1,20.1,0,0,1-1-28.33l26-28a38.48,38.48,0,0,1,54.23-2h0a38.49,38.49,0,0,1,2,54.23l-26,28A20.1,20.1,0,0,1,1225.54,3308.83Z" transform="translate(-468.59 -170.6)"/>
      <circle class="cls-9" cx="1254.28" cy="3251.16" r="18.14" transform="translate(-2449.28 1785.1) rotate(-47.08)"/>
      <path class="cls-2" d="M1308.21,3396.09l-200.39-186.35a37.2,37.2,0,0,0-52.57,1.91l-9.25,10,254.87,237,9.25-10A37.2,37.2,0,0,0,1308.21,3396.09Z" transform="translate(-468.59 -170.6)"/>
      <rect class="cls-19" x="876.75" y="3925.79" width="60.03" height="5.79" transform="translate(-1568.24 7255.38) rotate(-137.16)"/>
      <rect class="cls-19" x="932.6" y="3820.84" width="90.72" height="5.79" transform="translate(-1373.49 7121.87) rotate(-137.16)"/>
      <rect class="cls-19" x="770.42" y="3740.06" width="75.55" height="5.79" transform="translate(-1612.81 6866.42) rotate(-137.16)"/>
      <rect class="cls-19" x="719.63" y="3555.85" width="138.88" height="5.79" transform="translate(-1520.69 6534.14) rotate(-137.16)"/>
      <rect class="cls-19" x="769.56" y="3502.08" width="137.91" height="5.79" transform="translate(-1398.45 6474.56) rotate(-137.16)"/>
      <rect class="cls-19" x="833.59" y="3676.35" width="76.32" height="13.03" transform="translate(-1461.79 6805.5) rotate(-137.16)"/>
      <rect class="cls-19" x="848.83" y="3536.38" width="81.07" height="20.95" transform="translate(-2785.84 1618.76) rotate(-47.2)"/>
      <rect class="cls-19" x="993.94" y="3496.51" width="44.93" height="6.99" transform="matrix(0.68, -0.73, 0.73, 0.68, -2710.75, 1696.96)"/>
      <rect class="cls-19" x="973.36" y="3597.03" width="39.56" height="6.99" transform="translate(-2791.97 1712.13) rotate(-47.2)"/>
      <rect class="cls-19" x="935.81" y="3562.21" width="39.56" height="6.99" transform="translate(-2778.44 1673.39) rotate(-47.2)"/>
      <rect class="cls-19" x="939.75" y="3472.79" width="27.98" height="6.99" transform="translate(-2713.44 1643.4) rotate(-47.2)"/>
      <rect class="cls-19" x="1062.05" y="3603.58" width="78.31" height="6.99" transform="translate(-2762.12 1793.5) rotate(-47.2)"/>
      <polygon class="cls-19" points="608.59 3467.56 537.69 3469.12 536.34 3462.75 607.25 3461.19 608.59 3467.56"/>
      <rect class="cls-19" x="814.64" y="3470.1" width="48.52" height="6.99" transform="translate(-2748.27 1558.27) rotate(-47.2)"/>
      <rect class="cls-19" x="866.2" y="3715.18" width="39.19" height="6.99" transform="translate(-2913.05 1671.23) rotate(-47.2)"/>
      <rect class="cls-19" x="934.13" y="3768.33" width="69.69" height="6.99" transform="translate(-2925.38 1749.27) rotate(-47.2)"/>
      <rect class="cls-19" x="640.98" y="3630.3" width="90.72" height="5.79" transform="translate(2184.88 331.85) rotate(42.84)"/>
      <rect class="cls-19" x="660.48" y="3681.6" width="69.69" height="6.99" transform="translate(3402.93 5508.28) rotate(132.8)"/>
      <rect class="cls-19" x="775.98" y="3782.29" width="91.59" height="6.99" transform="translate(-2982.81 1645.76) rotate(-47.2)"/>
      <rect class="cls-19" x="775.5" y="3685.48" width="90.16" height="14.97" transform="translate(-2915.08 1615.13) rotate(-47.2)"/>
      <rect class="cls-19" x="740.16" y="3762.52" width="25.53" height="6.99" transform="translate(-2990.36 1588.88) rotate(-47.2)"/>
      <rect class="cls-19" x="667.33" y="3802.02" width="211.94" height="5.79" transform="translate(-1715.43 6950.1) rotate(-137.16)"/>
      <rect class="cls-19" x="592.27" y="3678" width="94.55" height="5.79" transform="translate(-1862.92 6644.19) rotate(-137.16)"/>
      <rect class="cls-19" x="840.55" y="3419.26" width="142.26" height="5.79" transform="translate(-1215.3 6380.77) rotate(-137.16)"/>
      <rect class="cls-19" x="913.58" y="3746.71" width="164.92" height="5.79" transform="translate(-1291.73 7005.68) rotate(-137.16)"/>
      <rect class="cls-19" x="1004.09" y="3538.35" width="171.13" height="5.79" transform="translate(-987.81 6708.2) rotate(-137.16)"/>
      <rect class="cls-19" x="973.81" y="3621.14" width="39.7" height="5.79" transform="translate(-1210.48 6786.43) rotate(-137.16)"/>
      <rect class="cls-19" x="1175.85" y="3634.48" width="35.21" height="5.79" transform="translate(-873.25 6945.41) rotate(-137.16)"/>
      <rect class="cls-19" x="957.21" y="3566.64" width="54.7" height="5.79" transform="translate(-1189.2 6685.77) rotate(-137.16)"/>
      <rect class="cls-19" x="1109.1" y="3380.46" width="101.92" height="11.06" transform="translate(-760.22 6486.98) rotate(-137.16)"/>
      <rect class="cls-19" x="1027.44" y="3293.63" width="74.39" height="12.08" transform="translate(-866.93 6272.48) rotate(-137.16)"/>
      <rect class="cls-19" x="1056.53" y="3587.81" width="12.71" height="414.24" transform="translate(-1206.72 7129.7) rotate(-137.16)"/>
      <rect class="cls-19" x="1128.74" y="3388.07" width="18.62" height="166.69" transform="translate(-856.45 6620.06) rotate(-137.16)"/>
      <rect class="cls-19" x="971.39" y="3248.29" width="15.53" height="200.04" transform="matrix(-0.73, -0.68, 0.68, -0.73, -1048.15, 6298.66)"/>
      <rect class="cls-19" x="730.54" y="3325.23" width="12.47" height="380.55" transform="translate(-1581.95 6423.64) rotate(-137.16)"/>
    </g>
    <path class="cls-4" d="M847.36,3859.81C859.82,3926,792,3904.69,792,3904.69c4.72,49.36-58.06,29.25-58.06,29.25-4.38,27.48-47.83-.7-47.83-.7-49.28-26.08-54.76-99-54.76-99-10.49-26.61,8.38-113.32,8.38-113.32-12-71.89-23.35-144-24.11-216.85a736.19,736.19,0,0,1,12-139.55,761.91,761.91,0,0,1,83.66-233.72q6.32-11.37,13-22.49L804.84,3206c-6.45,12.47-12.33,25.23-17.64,38.18-29.4,71.88-42.05,149.68-46.14,227.23-2.52,47.15-1.76,95.55,14.61,139.87a179,179,0,0,0,20.77,39.84c31.63,44,36.54,54.48,36.54,54.48,46.92,13.72,50.65,56.55,50.65,56.55,1.64,37.35,8.35,49.41,8.35,49.41C899.13,3864.55,847.36,3859.81,847.36,3859.81Z" transform="translate(-468.59 -170.6)"/>
  </g>
</svg>
