<svg id="Layer_1" data-name="Layer 1" xmlns="http://www.w3.org/2000/svg" viewBox="0 0 55.27 75.55">
  <defs>
    <style>
      .cls-1 {
        fill: #241410;
      }

      .cls-2 {
        fill: #734e5c;
      }

      .cls-3 {
        fill: #8a6b77;
      }

      .cls-4 {
        fill: #704a59;
      }

      .cls-5 {
        fill: #937681;
      }

      .cls-6 {
        fill: #ab949d;
      }

      .cls-7 {
        fill: #e4af75;
      }

      .cls-8 {
        fill: #c99243;
      }

      .cls-9 {
        fill: #f4b421;
      }

      .cls-10 {
        fill: #c90;
      }

      .cls-11 {
        fill: #4d403d;
      }

      .cls-12 {
        fill: #23a89f;
      }

      .cls-13 {
        fill: #009490;
      }
    </style>
  </defs>
  <title>4988 [Converted]</title>
  <g>
    <g>
      <path class="cls-1" d="M199,166.53h0a1.4,1.4,0,0,1-1.43-1.37l-1.65-11.06,4.27,1.05.2,9.95A1.4,1.4,0,0,1,199,166.53Z" transform="translate(-159.78 -124.4)"/>
      <path class="cls-2" d="M208.77,160.61l-14.48-4.47a3,3,0,0,1-2.07-3v-.05a3,3,0,0,1,3-2.75l15.13.46Z" transform="translate(-159.78 -124.4)"/>
      <ellipse class="cls-3" cx="207.59" cy="155.35" rx="9.17" ry="7.46" transform="translate(-112.32 234.87) rotate(-88.67)"/>
      <ellipse class="cls-4" cx="209.06" cy="155.33" rx="7.09" ry="4.26" transform="translate(-110.86 236.32) rotate(-88.67)"/>
      <path class="cls-5" d="M209.39,157.94s-3.84.27-4.28.25a13.08,13.08,0,0,1-.42-3.1,13.69,13.69,0,0,1,.67-3.14l4,1.22A11.27,11.27,0,0,1,209.39,157.94Z" transform="translate(-159.78 -124.4)"/>
      <ellipse class="cls-6" cx="209.3" cy="155.55" rx="2.39" ry="1.67" transform="matrix(0.04, -1, 1, 0.04, -113.63, 234.59)"/>
    </g>
    <rect class="cls-7" x="17.82" y="26.06" width="7.7" height="13.14"/>
    <path class="cls-8" d="M177.6,150.46v8.4a11.39,11.39,0,0,0,7.7,0v-8.4Z" transform="translate(-159.78 -124.4)"/>
    <path class="cls-9" d="M194.69,188.7V162.52a2.29,2.29,0,0,0-2.29-2.31h-22a6.13,6.13,0,0,1-2.21,2.49v26Z" transform="translate(-159.78 -124.4)"/>
    <path class="cls-10" d="M192.41,160.22h-1.87V188.7h4.16l1.45-23.83v-.8A4.57,4.57,0,0,0,192.41,160.22Z" transform="translate(-159.78 -124.4)"/>
    <path class="cls-11" d="M194.69,189.49v-16.2s-1.85-11.91-2.31-13.08h-5l.73,12.38H179l-3.46-12.38h-5.2a6.32,6.32,0,0,1-2.17,2.94v26.33Z" transform="translate(-159.78 -124.4)"/>
    <rect class="cls-1" x="8.42" y="62.52" width="26.49" height="3.19"/>
    <path class="cls-9" d="M167.88,196h.26V174l2.41-13.8h-.11a10.67,10.67,0,0,0-10.67,10.67v25.6h8.1Z" transform="translate(-159.78 -124.4)"/>
    <path class="cls-7" d="M167.88,196h.25c0-.05,0-.1,0-.15h-8.36a4.17,4.17,0,0,0,8.1,1.39Z" transform="translate(-159.78 -124.4)"/>
    <g>
      <path class="cls-9" d="M194.69,164.16l0,21.11a4.12,4.12,0,0,0,4.12,4.12h.08a4.12,4.12,0,0,0,4.12-4.12v-21.1Z" transform="translate(-159.78 -124.4)"/>
      <path class="cls-7" d="M194.69,164.47a4.18,4.18,0,0,1,8.36,0Z" transform="translate(-159.78 -124.4)"/>
      <path class="cls-8" d="M203,163.67a4.21,4.21,0,0,1,.09.8h-8.36a4.21,4.21,0,0,1,.09-.8Z" transform="translate(-159.78 -124.4)"/>
    </g>
    <path class="cls-8" d="M167.88,196h.25c0-.05,0-.1,0-.15h-8.36a4.17,4.17,0,0,0,.09.8h8Z" transform="translate(-159.78 -124.4)"/>
    <path class="cls-7" d="M181.45,134.75a11.44,11.44,0,0,0-11.3,9.67,2.51,2.51,0,0,0-1.41,2.42,2.38,2.38,0,0,0,1.7,2.5,11.45,11.45,0,1,0,11-14.59Z" transform="translate(-159.78 -124.4)"/>
    <path class="cls-1" d="M181.45,132.29c-7.05,0-12,5.58-12,12.64a1.3,1.3,0,0,1,1.25-.41c2,.35,1,2.67,1,2.76l1.35.31c1.4-4.57,4.12-8.09,8.37-8.09,1,0,5.2,3.11,7.26,3.11,2.51,0,4.55-1.58,4.55-3.52C193.26,133.41,184.77,132.29,181.45,132.29Z" transform="translate(-159.78 -124.4)"/>
    <g>
      <path class="cls-12" d="M195.72,139.05c.06-.5-1.69-1.4-1.69-1.4,0-7.31-5.26-13.24-12.58-13.24s-12.58,5.93-12.58,13.24c0,.52-.63,1-.57,1.54l17.48,5.13Z" transform="translate(-159.78 -124.4)"/>
      <path class="cls-13" d="M186.8,141.29c-5.85.44-16.19-1.09-17.93-3.75a3.77,3.77,0,0,0-.67,2.08c0,1.58,8.07,3,9.91,4.17,0,0-1,2.48,8.95,2.48,10.33,0,13.68-6.88,7-8.73C194.69,138.8,194.39,140.72,186.8,141.29Z" transform="translate(-159.78 -124.4)"/>
    </g>
  </g>
</svg>
