<svg xmlns="http://www.w3.org/2000/svg" xmlns:xlink="http://www.w3.org/1999/xlink" viewBox="0 0 695.23 633.53"><defs><style>.cls-1,.cls-3{fill:none;}.cls-2{isolation:isolate;}.cls-3{stroke:#ed7b00;stroke-linecap:round;stroke-linejoin:round;stroke-width:5px;stroke-dasharray:0 12.02;}.cls-4{fill:#fab702;}.cls-5{fill:#c99105;}.cls-6{font-size:29.59px;}.cls-13,.cls-6{fill:#fff;}.cls-11,.cls-6{font-family:Roboto-Medium, Roboto;}.cls-7{letter-spacing:-0.01em;}.cls-8{letter-spacing:-0.04em;}.cls-32,.cls-9{fill:#ebab48;}.cls-10{fill:#d69a05;}.cls-11{font-size:69.99px;}.cls-11,.cls-17{fill:#ffe7de;}.cls-12{fill:#a6a6a6;}.cls-14{fill:#c7c7c7;}.cls-15{fill:#f9be2d;}.cls-16{fill:#cf6845;}.cls-18{clip-path:url(#clip-path);}.cls-19{fill:#f2d29d;}.cls-20{fill:#e3c593;}.cls-21{fill:#edcd99;}.cls-22{fill:#ffdca4;}.cls-23{fill:#5e523d;}.cls-24{fill:#d6d6d6;}.cls-25{fill:#e0724a;}.cls-26{fill:#ff8154;}.cls-27{fill:#f0f0f0;}.cls-28{fill:#4b5669;}.cls-29{fill:#616f87;}.cls-30{fill:#bf613f;}.cls-31{opacity:0.07;mix-blend-mode:multiply;}.cls-32{font-size:64.47px;font-family:Roboto-Bold, Roboto;font-weight:700;}</style><clipPath id="clip-path" transform="translate(-50.81 -31.83)"><path class="cls-1" d="M574.12,310.75A174.68,174.68,0,1,0,229,348.91a174.68,174.68,0,1,0,341,0A175.26,175.26,0,0,0,574.12,310.75Z"/></clipPath></defs><title>keep in touch</title><g class="cls-2"><g id="ARTBOARD1"><circle class="cls-3" cx="348.63" cy="365.51" r="252.5"/><rect class="cls-4" x="233.21" y="570.01" width="230.85" height="58.74" rx="16.33" ry="16.33"/><path class="cls-5" d="M498.54,656.94H300.36A16.33,16.33,0,0,1,284,640.6v3.64a16.33,16.33,0,0,0,16.33,16.33H498.54a16.33,16.33,0,0,0,16.33-16.33V640.6A16.33,16.33,0,0,1,498.54,656.94Z" transform="translate(-50.81 -31.83)"/><text class="cls-6" transform="translate(254.15 608.03)"><tspan class="cls-7">K</tspan><tspan x="18.46" y="0">eep in </tspan><tspan class="cls-8" x="105.37" y="0">T</tspan><tspan x="121.59" y="0">ouch</tspan></text><path class="cls-9" d="M560.85,77.58l-.45.56a29.57,29.57,0,0,0-4.09,7l3.27,3.09a25.33,25.33,0,0,0-1.28,7l-4.14,2.15a29.7,29.7,0,0,0,1.48,8.24l4.51.27a25.24,25.24,0,0,0,4.06,6.75l-1.76,4.23a29.68,29.68,0,0,0,6.45,5l3.68-2.73a25.24,25.24,0,0,0,7.53,2.3l1.35,4.31a29.71,29.71,0,0,0,8.36-.56l1.08-4.54a25.33,25.33,0,0,0,6.44-2.93l3.79,2.43a29.57,29.57,0,0,0,5.85-5.68l.43-.57-2.12-4.24a25.26,25.26,0,0,0,2.5-5.31l4.49-.58a29.57,29.57,0,0,0,.9-9.34l-4.36-1.88a25.53,25.53,0,0,0-1.15-4.67l3.12-3.39a29.34,29.34,0,0,0-5.29-8.14L601,77.73q-.8-.74-1.67-1.43T597.54,75l.21-4.69a29.34,29.34,0,0,0-9.18-3.16L586,71a25.51,25.51,0,0,0-4.81,0l-2.89-3.77a29.57,29.57,0,0,0-8.84,3.14l.52,4.5a25.26,25.26,0,0,0-4.54,3.71Zm33.74,4.79a17.7,17.7,0,1,1-24.85,3.06A17.7,17.7,0,0,1,594.59,82.37Z" transform="translate(-50.81 -31.83)"/><path class="cls-9" d="M500.39,89.81l-.45.56a29.57,29.57,0,0,0-4.09,7l3.27,3.09a25.33,25.33,0,0,0-1.28,7l-4.14,2.15a29.71,29.71,0,0,0,1.48,8.24l4.51.27a25.24,25.24,0,0,0,4.06,6.75L502,129.1a29.69,29.69,0,0,0,6.45,5l3.68-2.73a25.24,25.24,0,0,0,7.53,2.31L521,138a29.71,29.71,0,0,0,8.36-.56l1.08-4.54a25.33,25.33,0,0,0,6.44-2.93l3.79,2.43a29.57,29.57,0,0,0,5.85-5.68l.43-.57-2.12-4.24a25.25,25.25,0,0,0,2.5-5.31l4.49-.58a29.57,29.57,0,0,0,.9-9.34l-4.36-1.88a25.51,25.51,0,0,0-1.15-4.67l3.12-3.39A29.35,29.35,0,0,0,545,88.61L540.54,90q-.8-.74-1.67-1.43t-1.79-1.28l.21-4.69a29.34,29.34,0,0,0-9.18-3.16l-2.54,3.85a25.51,25.51,0,0,0-4.81,0l-2.89-3.77A29.57,29.57,0,0,0,509,82.63l.52,4.5A25.26,25.26,0,0,0,505,90.84Zm33.74,4.79a17.7,17.7,0,1,1-24.85,3.06A17.7,17.7,0,0,1,534.13,94.6Z" transform="translate(-50.81 -31.83)"/><path class="cls-9" d="M563.66,139.2l-.45.56a29.57,29.57,0,0,0-4.09,7l3.27,3.09a25.33,25.33,0,0,0-1.28,7L557,159a29.71,29.71,0,0,0,1.48,8.24l4.51.27a25.24,25.24,0,0,0,4.06,6.75l-1.76,4.23a29.68,29.68,0,0,0,6.45,5l3.68-2.73a25.24,25.24,0,0,0,7.53,2.31l1.35,4.31a29.71,29.71,0,0,0,8.36-.56l1.08-4.54a25.33,25.33,0,0,0,6.44-2.93l3.79,2.43a29.57,29.57,0,0,0,5.85-5.68l.43-.57-2.12-4.24a25.25,25.25,0,0,0,2.5-5.31l4.49-.59a29.57,29.57,0,0,0,.9-9.34l-4.36-1.88a25.51,25.51,0,0,0-1.15-4.67l3.12-3.39a29.34,29.34,0,0,0-5.29-8.14l-4.5,1.34q-.8-.74-1.67-1.43t-1.79-1.28l.21-4.69a29.35,29.35,0,0,0-9.18-3.16l-2.54,3.85a25.52,25.52,0,0,0-4.81,0l-2.89-3.77a29.57,29.57,0,0,0-8.84,3.14l.52,4.5a25.26,25.26,0,0,0-4.54,3.71ZM597.4,144A17.7,17.7,0,1,1,572.55,147,17.7,17.7,0,0,1,597.4,144Z" transform="translate(-50.81 -31.83)"/><path class="cls-10" d="M61.88,306.15c-5.82-26.86,20-55.24,57.66-63.39s72.91,7,78.72,33.86-20,55.24-57.66,63.39a94.37,94.37,0,0,1-26.88,2L93.12,358.53l4.19-19.46C79,333.75,65.31,322,61.88,306.15Z" transform="translate(-50.81 -31.83)"/><path class="cls-4" d="M232,248.82c-5.82-26.86-41.06-42-78.72-33.86S89.81,251.5,95.62,278.36s41.06,42,78.72,33.86a94.37,94.37,0,0,0,25.28-9.34l25.61,6.55-11.87-16C227.87,281,235.44,264.65,232,248.82Z" transform="translate(-50.81 -31.83)"/><text class="cls-11" transform="translate(102.59 255.38) rotate(-12.22)">?</text><rect class="cls-12" x="144.98" y="483.81" width="59.34" height="101.16" rx="9.26" ry="9.26" transform="translate(-109.72 -8.83) rotate(-6.45)"/><rect class="cls-13" x="144.46" y="479.17" width="59.34" height="101.16" rx="9.26" ry="9.26" transform="translate(-109.2 -8.92) rotate(-6.45)"/><rect class="cls-14" x="148.21" y="491.1" width="51.84" height="77.29" transform="translate(-109.2 -8.92) rotate(-6.45)"/><circle class="cls-14" cx="179.17" cy="574.35" r="3.92" transform="translate(-114.19 -8.07) rotate(-6.45)"/><path class="cls-9" d="M669.9,387.1l-9.2,8.44,16.55-1a59.19,59.19,0,0,0,14.47,8.74c22.23,9.47,45.74,4.3,52.49-11.55s-5.79-36.39-28-45.86-45.74-4.3-52.49,11.55C659.71,366.75,662.44,377.72,669.9,387.1Zm49.94-5.21a5.7,5.7,0,1,1,3,7.47A5.7,5.7,0,0,1,719.84,381.88Zm-20.16-8.59a5.7,5.7,0,1,1,3,7.47A5.7,5.7,0,0,1,699.68,373.3Zm-20.16-8.59a5.7,5.7,0,1,1,3,7.47A5.7,5.7,0,0,1,679.52,364.71Z" transform="translate(-50.81 -31.83)"/><path class="cls-9" d="M73.8,384.35a43.24,43.24,0,1,0,58.44,18A43.28,43.28,0,0,0,73.8,384.35Zm52.8,18.14-12.52,6.63c-6.89-12.12-16-20.86-24.62-24.54A38.32,38.32,0,0,1,126.6,402.49ZM74.1,390.23l16.58,31.29-14.6,7.73C68.2,413.1,67.46,396.49,74.1,390.23ZM93,425.92l16.58,31.29c-8.91,2-22.23-8-31.18-23.56Zm21,29L97.41,423.59l14.6-7.73C119.88,432,120.63,448.62,114,454.88ZM95.08,419.19,78.5,387.89c8.91-2,22.23,8,31.18,23.56ZM65.2,397.44c-1.82,9.22.32,21.64,6.47,34.15l-12.52,6.63A38.32,38.32,0,0,1,65.2,397.44Zm-3.72,45.18L74,436c6.89,12.12,16,20.86,24.62,24.54A38.33,38.33,0,0,1,61.48,442.62Zm61.4,5.05c1.82-9.22-.32-21.64-6.47-34.15l12.52-6.63A38.32,38.32,0,0,1,122.88,447.67Z" transform="translate(-50.81 -31.83)"/><rect class="cls-15" x="609.96" y="442.04" width="76.95" height="97.83" rx="8.64" ry="8.64" transform="translate(136.6 -210.92) rotate(18.34)"/><path class="cls-4" d="M662.29,529.61l25.56-77.12-52.34-17.35a8.64,8.64,0,0,0-10.91,5.48l-25.35,76.47A8.64,8.64,0,0,0,604.72,528l56.65,18.78a8.64,8.64,0,0,0,10.91-5.48l2.5-7.55Z" transform="translate(-50.81 -31.83)"/><path class="cls-4" d="M627,451.17l-10.64-3.53a2.24,2.24,0,0,1-1.42-2.82h0a2.24,2.24,0,0,1,2.82-1.42l10.64,3.53a2.24,2.24,0,0,1,1.42,2.82h0A2.24,2.24,0,0,1,627,451.17Z" transform="translate(-50.81 -31.83)"/><path class="cls-4" d="M624,460.19l-10.64-3.53a2.24,2.24,0,0,1-1.42-2.82h0a2.24,2.24,0,0,1,2.82-1.42l10.64,3.53a2.24,2.24,0,0,1,1.42,2.82h0A2.24,2.24,0,0,1,624,460.19Z" transform="translate(-50.81 -31.83)"/><path class="cls-4" d="M621,469.21l-10.64-3.53a2.24,2.24,0,0,1-1.42-2.82h0a2.24,2.24,0,0,1,2.82-1.42L622.42,465a2.24,2.24,0,0,1,1.42,2.82h0A2.24,2.24,0,0,1,621,469.21Z" transform="translate(-50.81 -31.83)"/><path class="cls-4" d="M618,478.22l-10.64-3.53a2.24,2.24,0,0,1-1.42-2.82h0a2.24,2.24,0,0,1,2.82-1.42L619.43,474a2.24,2.24,0,0,1,1.42,2.82h0A2.24,2.24,0,0,1,618,478.22Z" transform="translate(-50.81 -31.83)"/><path class="cls-4" d="M615,487.24l-10.64-3.53a2.24,2.24,0,0,1-1.42-2.82h0a2.24,2.24,0,0,1,2.82-1.42L616.45,483a2.24,2.24,0,0,1,1.42,2.82h0A2.24,2.24,0,0,1,615,487.24Z" transform="translate(-50.81 -31.83)"/><path class="cls-4" d="M612,496.26l-10.64-3.53a2.24,2.24,0,0,1-1.42-2.82h0a2.24,2.24,0,0,1,2.82-1.42L613.46,492a2.24,2.24,0,0,1,1.42,2.82h0A2.24,2.24,0,0,1,612,496.26Z" transform="translate(-50.81 -31.83)"/><path class="cls-4" d="M609.06,505.28l-10.64-3.53a2.23,2.23,0,0,1-1.42-2.82h0a2.24,2.24,0,0,1,2.82-1.42L610.47,501a2.23,2.23,0,0,1,1.42,2.82h0A2.24,2.24,0,0,1,609.06,505.28Z" transform="translate(-50.81 -31.83)"/><path class="cls-4" d="M606.07,514.29l-10.64-3.53a2.24,2.24,0,0,1-1.42-2.82h0a2.24,2.24,0,0,1,2.82-1.42L607.48,510a2.24,2.24,0,0,1,1.42,2.82h0A2.24,2.24,0,0,1,606.07,514.29Z" transform="translate(-50.81 -31.83)"/><path class="cls-16" d="M656,515h0S656,515,656,515Z" transform="translate(-50.81 -31.83)"/><path class="cls-16" d="M646,465.19s0,0,0,0Z" transform="translate(-50.81 -31.83)"/><path class="cls-17" d="M634.14,469.71c-2.76,3.56-3.7,8.26-3.49,12.76a43.26,43.26,0,0,0,1.54,9,40,40,0,0,1,.93,4.66,43.26,43.26,0,0,0,2,8.86c1.54,4.23,4.22,8.21,8.13,10.43s9.17,2.35,12.72-.41c0,0-.05-.1,0,0L653.38,502a10,10,0,0,0-6.6.29,37.21,37.21,0,0,1-4.38-21.84,10,10,0,0,0,6.2-2.28L646,465.23c0,.07,0,0,0,0C641.69,464,636.9,466.15,634.14,469.71Z" transform="translate(-50.81 -31.83)"/><polygon class="cls-9" points="253.17 85.81 275.45 48.76 273.4 44.41 208.35 75.14 210.41 79.49 253.17 85.81"/><polygon class="cls-9" points="254.53 88.67 211.76 82.35 229.54 119.99 294.59 89.26 276.81 51.62 254.53 88.67"/><g class="cls-18"><rect class="cls-19" x="299.37" y="307.57" width="98.53" height="113.25"/><path class="cls-20" d="M350.18,402.44a49.7,49.7,0,0,0,10.36,8.4l27.82,16.91a49.76,49.76,0,0,0,51.68,0l8.66-5.26V339.4H350.18Z" transform="translate(-50.81 -31.83)"/><path class="cls-21" d="M337.23,352.92c-9.12-3.2-13.92-13.45-17.76-22.73-3.54-8.55-7.13-17.3-7.85-26.6-.33-4.19.17-8.93,3.23-11.63,2.38-2.09,5.83-2.41,8.83-1.6s5.69,2.57,8.31,4.32C348.35,305.55,345.34,334.42,337.23,352.92Z" transform="translate(-50.81 -31.83)"/><path class="cls-21" d="M466.24,351.14c9.12-3.2,13.92-13.45,17.76-22.73,3.54-8.55,7.13-17.3,7.85-26.6.33-4.19-.17-8.93-3.23-11.63-2.38-2.09-5.83-2.41-8.83-1.6s-5.69,2.57-8.31,4.32C455.12,303.76,458.13,332.64,466.24,351.14Z" transform="translate(-50.81 -31.83)"/><path class="cls-22" d="M452.46,394.91,426,411.81a45.2,45.2,0,0,1-49.06,0l-26.41-16.91c-14.1-9-22.71-25.15-22.71-42.53V247.81H475.17V352.38C475.17,369.76,466.56,385.88,452.46,394.91Z" transform="translate(-50.81 -31.83)"/><path class="cls-23" d="M473.24,328.62c-.58-11.87-3.77-24.35-6.7-35.83-41.21-1.87-80.76-14.81-116.05-37.3a113.45,113.45,0,0,1-11,47.15c-4.26,8.87-9.86,18-8.72,27.85-4.06-9-7.41-17.32-11.47-26.36-4.78-10.67-9.6-21.43-12.17-32.91s-2.76-23.89,1.57-34.76c5.08-12.76,16.49-22.51,29.39-25.12,8.59-15.42,24.15-27.08,40.52-31.83s33.7-4.39,50.56-2.28c20.29,2.55,42.07,8.8,54.05,26.23,8.42,12.25,10.54,28.09,10.45,43.22C493.46,275.33,486.72,303.74,473.24,328.62Z" transform="translate(-50.81 -31.83)"/><path class="cls-24" d="M399.45,445.18,350.25,419l-14.16,13.07L296.6,449A89.8,89.8,0,0,0,247,502.6l-7.94,58H399.45Z" transform="translate(-50.81 -31.83)"/><path class="cls-24" d="M399.45,445.18,448.64,419l14.16,13.07L502.3,449a89.8,89.8,0,0,1,49.62,53.56l7.94,58H399.45Z" transform="translate(-50.81 -31.83)"/><polygon class="cls-25" points="348.63 423.94 324.41 514.68 329.23 528.78 368.04 528.78 372.92 514.52 348.63 423.94"/><path class="cls-26" d="M390.79,476.7l-7.18-12.44a10,10,0,0,1,8.66-15h14.36a10,10,0,0,1,8.66,15l-7.18,12.44A10,10,0,0,1,390.79,476.7Z" transform="translate(-50.81 -31.83)"/><polygon class="cls-27" points="411.99 400.29 428.02 407.16 393.48 476.51 348.63 413.35 397.83 387.22 411.99 400.29"/><path class="cls-28" d="M559.86,560.61h-141l43.95-128.5L502.3,449a89.8,89.8,0,0,1,49.62,53.56Z" transform="translate(-50.81 -31.83)"/><path class="cls-29" d="M500.3,448.19c-17.54,17-34.23,32.93-34.23,32.93l15.25,15.25-43.05,64.25H418.85l43.95-128.5Z" transform="translate(-50.81 -31.83)"/><polygon class="cls-27" points="285.28 400.29 269.25 407.16 303.79 476.51 348.63 413.35 299.44 387.22 285.28 400.29"/><path class="cls-28" d="M239,560.61H380l-43.95-128.5L296.6,449A89.8,89.8,0,0,0,247,502.6Z" transform="translate(-50.81 -31.83)"/><path class="cls-29" d="M298.59,448.19c17.54,17,34.23,32.93,34.23,32.93l-15.25,15.25,43.05,64.25H380l-43.95-128.5Z" transform="translate(-50.81 -31.83)"/><path class="cls-30" d="M316.56,351.14H305.67V287.05a95.84,95.84,0,0,1,191.69,0v61.5H486.47v-61.5a85,85,0,1,0-169.91,0Z" transform="translate(-50.81 -31.83)"/><path class="cls-26" d="M260.62,255h0a0,0,0,0,1,0,0v65.62a0,0,0,0,1,0,0h0a19.77,19.77,0,0,1-19.77-19.77V274.79A19.77,19.77,0,0,1,260.62,255Z"/><rect class="cls-30" x="260.62" y="249.77" width="15.98" height="76.11" rx="4.49" ry="4.49"/><path class="cls-30" d="M411.79,406.49a5.45,5.45,0,0,1-1.58-10.66l19.62-5.95a88.16,88.16,0,0,0,58.6-58.08,5.44,5.44,0,0,1,10.39,3.25A99,99,0,0,1,433,400.31l-19.62,5.95A5.46,5.46,0,0,1,411.79,406.49Z" transform="translate(-50.81 -31.83)"/><path class="cls-26" d="M511.51,286.85h0a0,0,0,0,1,0,0v65.62a0,0,0,0,1,0,0h0a19.77,19.77,0,0,1-19.77-19.77V306.62A19.77,19.77,0,0,1,511.51,286.85Z" transform="translate(952.44 607.49) rotate(-180)"/><rect class="cls-30" x="475.75" y="281.6" width="15.98" height="76.11" rx="4.49" ry="4.49" transform="translate(916.68 607.49) rotate(180)"/><path class="cls-31" d="M502.3,449l-2-.86-37.5-16.07-14.09-13v-21.8l3.75-2.4A48,48,0,0,0,464,384.54a99,99,0,0,0,24.61-27,4.49,4.49,0,0,0,3.16-4.29v-.76h0a19.77,19.77,0,0,0,19.77-19.77V306.62a19.78,19.78,0,0,0-14.15-19v-.61a95.53,95.53,0,0,0-4.22-28.14c.29-4.07.46-8.15.49-12.23.09-15.12-2-31-10.45-43.22-12-17.43-33.76-23.68-54.05-26.23A158.47,158.47,0,0,0,399.45,176V560.61H559.86l-7.94-58A89.8,89.8,0,0,0,502.3,449Zm-27.13-96.66V344.6l.59-.72v9.35a4.46,4.46,0,0,0,.88,2.66q-.89,1.27-1.82,2.51A52.4,52.4,0,0,0,475.17,352.38Z" transform="translate(-50.81 -31.83)"/></g><path class="cls-9" d="M401.9,31.83h0c-25.15,0-40.87,27.22-28.29,49l28.29,49,28.29-49C442.77,59.05,427,31.83,401.9,31.83Zm20.94,44.76h0a24.18,24.18,0,0,1-41.88,0h0A24.18,24.18,0,0,1,401.9,40.32h0A24.18,24.18,0,0,1,422.84,76.59Z" transform="translate(-50.81 -31.83)"/><path class="cls-9" d="M649.09,615.33h0S649.13,615.3,649.09,615.33Z" transform="translate(-50.81 -31.83)"/><path class="cls-9" d="M593.33,652.36s0,0,0,0Z" transform="translate(-50.81 -31.83)"/><path class="cls-9" d="M604.79,664.64c5.72,1.59,11.93.39,17.31-2.12a57,57,0,0,0,10.17-6.36,52.77,52.77,0,0,1,5.22-3.47,57,57,0,0,0,9.8-6.91c4.39-4,7.91-9.25,8.66-15.13s-1.71-12.36-6.85-15.32c0,0-.1.12,0,.07L634.59,625a13.2,13.2,0,0,0,3.65,7.91,49.06,49.06,0,0,1-24.46,16.25,13.2,13.2,0,0,0-5.88-6.43l-14.5,9.63c.08-.05,0,0-.07,0C594.07,658.26,599.08,663,604.79,664.64Z" transform="translate(-50.81 -31.83)"/><path class="cls-9" d="M644.78,609.48a2.64,2.64,0,0,1-3.67-.67,30.71,30.71,0,1,0-50.54,34.91,2.64,2.64,0,0,1-4.34,3,36,36,0,1,1,59.22-40.91A2.64,2.64,0,0,1,644.78,609.48Z" transform="translate(-50.81 -31.83)"/><path class="cls-9" d="M636.1,615.47a2.64,2.64,0,0,1-3.67-.67,20.17,20.17,0,1,0-33.19,22.92,2.64,2.64,0,1,1-4.34,3,25.44,25.44,0,1,1,41.86-28.92A2.64,2.64,0,0,1,636.1,615.47Z" transform="translate(-50.81 -31.83)"/><path class="cls-9" d="M628.51,620.72a2.64,2.64,0,0,1-3.67-.67,10.94,10.94,0,1,0-18,12.43,2.64,2.64,0,0,1-4.34,3A16.21,16.21,0,1,1,629.18,617,2.64,2.64,0,0,1,628.51,620.72Z" transform="translate(-50.81 -31.83)"/><polygon class="cls-9" points="198.25 137.91 181.23 101.75 175.07 110.61 152.56 94.97 142.07 110.07 164.58 125.71 158.43 134.57 198.25 137.91"/><polygon class="cls-9" points="100.92 102.07 140.74 105.4 134.58 114.26 157.09 129.9 146.6 145 124.09 129.36 117.94 138.22 100.92 102.07"/><text class="cls-32" transform="translate(619.36 200.12)">@</text></g></g></svg>